<?xml version="1.0" encoding="UTF-8" standalone="no"?>
<!DOCTYPE svg PUBLIC "-//W3C//DTD SVG 1.1//EN" "http://www.w3.org/Graphics/SVG/1.1/DTD/svg11.dtd">
<svg width="100%" height="100%" viewBox="0 0 512 512" version="1.1" xmlns="http://www.w3.org/2000/svg" xmlns:xlink="http://www.w3.org/1999/xlink" xml:space="preserve" xmlns:serif="http://www.serif.com/" style="fill-rule:evenodd;clip-rule:evenodd;stroke-linecap:round;stroke-linejoin:round;stroke-miterlimit:1.5;">
    <g transform="matrix(0.5,0,0,0.5,-23.7969,13.4671)">
        <path d="M400,235C400,235 180.833,8.833 130,24C79.167,39.167 95,224.66 95,326C95,438.833 79.167,600.303 130,701C180.833,801.697 286.583,897.433 400,930.184C521.75,965.341 720.725,937.573 807.511,914.042C851.553,902.101 904.956,831.826 920.712,789C941.747,731.825 975.712,632.017 986.712,568.894C995.79,516.801 1008.71,410.26 1008.71,410.26C1008.71,410.26 1024,356.714 1024,326C1024,266.417 1044.27,66.659 986.712,52.761C897.8,31.296 761.849,216 754.555,235C635.37,226.569 519.185,226.43 400,235Z" style="fill:rgb(240,244,244);"/>
        <clipPath id="_clip1">
            <path d="M400,235C400,235 180.833,8.833 130,24C79.167,39.167 95,224.66 95,326C95,438.833 79.167,600.303 130,701C180.833,801.697 286.583,897.433 400,930.184C521.75,965.341 720.725,937.573 807.511,914.042C851.553,902.101 904.956,831.826 920.712,789C941.747,731.825 975.712,632.017 986.712,568.894C995.79,516.801 1008.71,410.26 1008.71,410.26C1008.71,410.26 1024,356.714 1024,326C1024,266.417 1044.27,66.659 986.712,52.761C897.8,31.296 761.849,216 754.555,235C635.37,226.569 519.185,226.43 400,235Z"/>
        </clipPath>
        <g clip-path="url(#_clip1)">
            <g transform="matrix(1,0,0,1,47.5,0)">
                <path d="M1024,-28L23,-28L23,568.894C23,568.894 122.702,530.991 164.744,539.011C206.787,547.03 230.167,617.011 275.256,617.011C323.465,617.011 406.799,535.011 454,539.011C501.201,543.011 516.658,580.011 558.462,597.011C600.267,614.011 684.433,614.011 704.827,597.011C725.221,580.011 678.352,543.011 704.827,539.011C731.302,535.011 820.614,617.011 863.678,617.011C899.871,617.011 912.492,547.03 939.212,539.011C965.932,530.991 1024,568.894 1024,568.894L1024,-28Z" style="fill:rgb(41,40,51);"/>
            </g>
            <g transform="matrix(6.79393e-17,1.10953,-1.10953,6.79393e-17,868.454,183.688)">
                <path d="M270.5,334C230.486,334 198,366.059 198,405.546C198,445.033 230.486,477.092 270.5,477.092C280.503,459.205 288.625,433.304 288.625,405.546C288.625,377.788 280.503,351.886 270.5,334Z" style="fill:rgb(23,79,42);"/>
            </g>
            <g transform="matrix(-0.275308,1.02746,-1.02746,-0.275308,908.612,217.493)">
                <path d="M259.5,334C227.333,320.445 198,366.059 198,405.546C198,445.033 231.576,488.858 259.5,477.092C277.76,469.397 288.625,433.304 288.625,405.546C288.625,377.788 278.374,341.953 259.5,334Z" style="fill:rgb(240,244,244);"/>
            </g>
            <g transform="matrix(6.79393e-17,1.10953,-1.10953,6.79393e-17,1268.38,183.688)">
                <path d="M270.5,334C230.486,334 198,366.059 198,405.546C198,445.033 230.486,477.092 270.5,477.092C280.503,459.205 288.625,433.304 288.625,405.546C288.625,377.788 280.503,351.886 270.5,334Z" style="fill:rgb(23,79,42);"/>
            </g>
            <g transform="matrix(0.275308,1.02746,1.02746,-0.275308,308.873,217.493)">
                <path d="M259.5,334C227.333,320.445 198,366.059 198,405.546C198,445.033 231.576,488.858 259.5,477.092C277.76,469.397 288.625,433.304 288.625,405.546C288.625,377.788 278.374,341.953 259.5,334Z" style="fill:rgb(240,244,244);"/>
            </g>
            <g transform="matrix(1,5.55112e-17,-5.55112e-17,1,47.5,-5.68434e-14)">
                <path d="M388.178,741.396C391.161,753.911 400.976,763.673 413.741,771.34C429.631,780.885 450.293,786.739 467.155,790.468C483.871,794.05 510.234,796.056 538.02,796.806C559.482,797.386 581.728,797.419 600.749,796.963C618.318,796.542 633.039,795.581 641.632,795.615C641.673,795.615 641.714,795.616 641.755,795.616C641.755,795.616 654.343,795.227 671.319,794.139C680.385,793.557 690.599,792.796 700.883,791.823C730.677,789.007 760.011,785.272 760.011,785.272C762.364,785.272 764.275,783.361 764.275,781.008C764.275,778.654 762.364,776.743 760.011,776.743C760.011,776.743 730.677,773.008 700.883,770.192C690.599,769.219 680.385,768.458 671.319,767.876C654.343,766.788 641.755,766.4 641.755,766.4C636.405,766.257 628.541,766.168 619.078,766.48C609.406,766.798 598.027,767.452 585.821,768.225C559.249,769.907 528.796,772.144 503.512,772.599C490.535,772.833 479.023,772.833 470.201,771.861C454.501,770.177 435.131,767.006 419.701,759.995C408.871,755.074 399.886,748.581 396.343,738.933C395.664,736.68 393.283,735.403 391.029,736.082C388.776,736.762 387.499,739.143 388.178,741.396Z" style="fill:rgb(19,12,20);"/>
            </g>
            <g transform="matrix(1.70193,0,0,1.54062,-374.389,-360.174)">
                <path d="M690.954,641.011C675.45,628.679 573.152,628.679 558.462,641.011C543.773,653.342 587.314,702.668 602.818,715C615.514,725.098 639.06,725.43 651.484,715C666.173,702.668 706.458,653.342 690.954,641.011Z" style="fill:rgb(19,12,20);"/>
            </g>
            <g transform="matrix(0.881224,0,0,0.881224,29.2585,42.7639)">
                <path d="M351.204,249.559C361.269,199.898 180.833,8.833 130,24C79.167,39.167 95,224.66 95,326C95,379.322 345.371,278.34 351.204,249.559Z" style="fill:rgb(116,80,98);"/>
            </g>
            <g transform="matrix(-0.878325,-0.071419,-0.071419,0.878325,1101.14,59.157)">
                <path d="M342.524,244.299C352.589,194.638 180.833,8.833 130,24C79.167,39.167 86.319,219.4 86.319,320.74C86.319,374.062 336.69,273.08 342.524,244.299Z" style="fill:rgb(116,80,98);"/>
            </g>
        </g>
        <path d="M400,235C400,235 180.833,8.833 130,24C79.167,39.167 95,224.66 95,326C95,438.833 79.167,600.303 130,701C180.833,801.697 286.583,897.433 400,930.184C521.75,965.341 720.725,937.573 807.511,914.042C851.553,902.101 904.956,831.826 920.712,789C941.747,731.825 975.712,632.017 986.712,568.894C995.79,516.801 1008.71,410.26 1008.71,410.26C1008.71,410.26 1024,356.714 1024,326C1024,266.417 1044.27,66.659 986.712,52.761C897.8,31.296 761.849,216 754.555,235C635.37,226.569 519.185,226.43 400,235Z" style="fill:none;stroke:black;stroke-width:30px;"/>
    </g>
</svg>
